<svg width="512" height="512" viewBox="0 0 512 512" fill="none" xmlns="http://www.w3.org/2000/svg">
<path d="M319 160V160.535L319.445 160.832L497.245 279.332L497.247 279.333C505.864 285.046 511 294.73 511 305.1V361.8C511 372.011 500.975 379.238 491.215 376.051C491.214 376.051 491.212 376.05 491.211 376.049L320.316 319.051L319 318.612V320V400V400.5L319.4 400.8L377 444C380.748 446.811 383 451.315 383 456V498C383 505.243 377.152 511 370 511C368.809 511 367.596 510.818 366.35 510.531L256.275 479.039L256 478.96L255.725 479.039L145.625 510.539L145.615 510.541L145.606 510.544C144.44 510.903 143.252 511 142 511C134.757 511 129 505.152 129 498V456C129 451.315 131.252 446.811 135 444L192.6 400.8L193 400.5V400V320V318.612L191.684 319.051L20.7893 376.049C20.788 376.05 20.7868 376.05 20.7856 376.051C11.0261 379.239 1 372.011 1 361.8V305.1C1 294.73 6.13596 285.046 14.7525 279.333L14.7546 279.332L192.555 160.832L193 160.535V160V93.7C193 76.8245 200.176 53.5773 211.73 34.5439C217.501 25.037 224.335 16.6312 231.859 10.6121C239.382 4.59345 247.544 1 256 1C273.443 1 289.183 15.4573 300.643 34.5398C312.07 53.5684 319 76.8173 319 93.7V160Z" fill="#0C5905" stroke="black" stroke-width="2"/>
</svg>